# xmcd CD database file
#
# Track frame offsets:
#	150
#	19367
#	37878
#	63312
#	88421
#	107450
#	124394
#	142236
#	164180
#	185186
#	209240
#	227732
#	244368
#	262362
#	280261
#	297235
#
# Disc length: 4218 seconds
#
# Revision: 0
# Processed by: cddbd v1.5.2PL0 Copyright (c) Steve Scherf et al.
# Submitted via: CDex 1.51
#
DISCID=14107810
DTITLE=Böhse Onkelz - Gestern
DYEAR=2001
DGENRE=Rhythmic Soul
TTITLE0=Dunkler Ort
TTITLE1=Finde die Wahrheit
TTITLE2=Kirche
TTITLE3=Nicht ist für die Ewigkeit
TTITLE4=Onkelz 2000
TTITLE5=So sind wir
TTITLE6=Terpentin
TTITLE7=Wir ham' noch lange nicht genug
TTITLE8=Hier sind die Onkelz
TTITLE9=Auf gute Freunde
TTITLE10=Danket dem Herrn
TTITLE11=Danke für nichts
TTITLE12=Lieber stehend sterben
TTITLE13=Nur die Besten sterben jung
TTITLE14=Kneipenterroristen
TTITLE15=Das ist mein Leben
EXTD=YEAR: 2001
EXTT0=
EXTT1=
EXTT2=
EXTT3=
EXTT4=
EXTT5=
EXTT6=
EXTT7=
EXTT8=
EXTT9=
EXTT10=
EXTT11=
EXTT12=
EXTT13=
EXTT14=
EXTT15=
PLAYORDER=
